<svg width="56" height="56" viewBox="0 0 56 56" fill="none" xmlns="http://www.w3.org/2000/svg">
<g clip-path="url(#clip0_2683_14387)">
<rect width="50.8741" height="35.2208" rx="4.6165" transform="matrix(0.987841 0.155466 -0.155457 0.987843 5.95813 5.84277)" fill="#9886E5"/>
<ellipse cx="3.91342" cy="3.91342" rx="3.91342" ry="3.91342" transform="matrix(0.987841 0.155466 -0.161937 0.986801 36.0804 34.1396)" fill="#3C315B"/>
<ellipse cx="3.91342" cy="3.91342" rx="3.91342" ry="3.91342" transform="matrix(0.987841 0.155466 -0.161937 0.986801 40.9065 34.8992)" fill="#FFFFC4"/>
<rect x="13.0249" y="16.6458" width="9.78354" height="7.82683" rx="1.3125" transform="rotate(8.94384 13.0249 16.6458)" fill="#FFFFC4"/>
<path d="M40.5144 7.88449C42.6922 10.2223 43.8495 10.5282 46.8987 9.49264C47.1598 9.4044 47.3757 9.76973 47.1719 9.95516C44.8002 12.1342 44.5121 13.295 45.5168 16.3288C45.6077 16.6024 45.2959 16.7866 45.0995 16.5754C42.9221 14.2383 41.7657 13.9339 38.7154 14.9691C38.4543 15.0573 38.2384 14.692 38.4422 14.5066C40.814 12.3276 41.1013 11.1671 40.0973 8.13291C40.0064 7.85936 40.3182 7.67512 40.5146 7.88634L40.5151 7.8841L40.5144 7.88449Z" fill="#FFFDF8"/>
</g>
<defs>
<clipPath id="clip0_2683_14387">
<rect width="56" height="56" fill="white"/>
</clipPath>
</defs>
</svg>
