<svg width="56" height="56" viewBox="0 0 56 56" fill="none" xmlns="http://www.w3.org/2000/svg">
<g clip-path="url(#clip0_2683_14399)">
<circle cx="26.1525" cy="25.1605" r="21.6071" transform="rotate(-2.84358 26.1525 25.1605)" fill="#FFFFC4"/>
<path fill-rule="evenodd" clip-rule="evenodd" d="M18.7831 31.3474C18.8565 31.2577 18.9459 31.1861 19.0457 31.137C19.1454 31.088 19.2532 31.0626 19.3623 31.0625L37.2328 31.0788C37.309 31.0789 37.3834 31.1036 37.4471 31.1499C37.5108 31.1962 37.561 31.262 37.5917 31.3394C37.6224 31.4168 37.6321 31.5024 37.6198 31.5858C37.6076 31.6693 37.5737 31.747 37.5224 31.8095L33.7169 36.4651C33.6434 36.5548 33.5539 36.6265 33.4541 36.6756C33.3543 36.7246 33.2463 36.75 33.1372 36.75L15.2671 36.7338C15.191 36.7336 15.1166 36.7089 15.0529 36.6626C14.9892 36.6163 14.939 36.5505 14.9083 36.4731C14.8777 36.3957 14.8679 36.3101 14.8802 36.2267C14.8924 36.1432 14.9263 36.0655 14.9776 36.003L18.7831 31.3474ZM37.5224 27.4718C37.5737 27.5343 37.6076 27.612 37.6198 27.6954C37.6321 27.7789 37.6224 27.8645 37.5917 27.9418C37.561 28.0193 37.5108 28.0851 37.4471 28.1313C37.3834 28.1776 37.309 28.2023 37.2328 28.2025L19.3628 28.2188C19.2537 28.2188 19.1457 28.1934 19.0459 28.1443C18.9461 28.0953 18.8566 28.0236 18.7831 27.9338L14.9776 23.2755C14.9263 23.213 14.8924 23.1353 14.8802 23.0519C14.8679 22.9684 14.8777 22.8828 14.9083 22.8054C14.939 22.728 14.9892 22.6622 15.0529 22.616C15.1166 22.5697 15.191 22.545 15.2671 22.5448L33.1377 22.5285C33.2468 22.5286 33.3546 22.554 33.4543 22.6031C33.5541 22.6521 33.6435 22.7238 33.7169 22.8135L37.5224 27.4718ZM18.7831 14.2849C18.8565 14.1952 18.9459 14.1236 19.0457 14.0745C19.1454 14.0255 19.2532 14.0001 19.3623 14L37.2328 14.0163C37.309 14.0164 37.3834 14.0411 37.4471 14.0874C37.5108 14.1337 37.561 14.1995 37.5917 14.2769C37.6224 14.3543 37.6321 14.4399 37.6198 14.5233C37.6076 14.6068 37.5737 14.6845 37.5224 14.747L33.7169 19.4026C33.6434 19.4923 33.5539 19.564 33.4541 19.6131C33.3543 19.6622 33.2463 19.6875 33.1372 19.6875L15.2671 19.6713C15.191 19.6711 15.1166 19.6464 15.0529 19.6001C14.9892 19.5538 14.939 19.488 14.9083 19.4106C14.8777 19.3332 14.8679 19.2476 14.8802 19.1642C14.8924 19.0807 14.9263 19.003 14.9776 18.9405L18.7831 14.2849Z" fill="#3C315B"/>
<rect x="30.125" y="30.125" width="23.75" height="23.75" rx="11.875" fill="#9886E5" stroke="#2C2838" stroke-width="1.75"/>
<path fill-rule="evenodd" clip-rule="evenodd" d="M41.9999 35.3335C42.3681 35.3335 42.6666 35.632 42.6666 36.0002L42.6666 41.3335L47.9999 41.3335C48.3681 41.3335 48.6666 41.632 48.6666 42.0002C48.6666 42.3684 48.3681 42.6668 47.9999 42.6668L42.6666 42.6668L42.6666 48.0002C42.6666 48.3684 42.3681 48.6668 41.9999 48.6668C41.6317 48.6668 41.3333 48.3684 41.3333 48.0002L41.3333 42.6668L35.9999 42.6668C35.6317 42.6668 35.3333 42.3684 35.3333 42.0002C35.3333 41.632 35.6317 41.3335 35.9999 41.3335L41.3333 41.3335L41.3333 36.0002C41.3333 35.632 41.6317 35.3335 41.9999 35.3335Z" fill="#3C315B"/>
<path d="M7.54075 5.97591C9.75299 10.3931 11.3366 11.3512 16.3114 11.1436C16.7372 11.1264 16.8983 11.7625 16.5152 11.9488C12.0471 14.148 11.1139 15.7446 11.2825 20.6832C11.2982 21.1287 10.7553 21.2661 10.5559 20.8672C8.34402 16.4512 6.76107 15.4957 1.78481 15.7023C1.35893 15.7195 1.19791 15.0834 1.58096 14.8971C6.0491 12.6979 6.98109 11.1016 6.81365 6.16269C6.79799 5.71725 7.34091 5.5798 7.54024 5.97874L7.54191 5.97561L7.54075 5.97591Z" fill="#9886E5"/>
</g>
<defs>
<clipPath id="clip0_2683_14399">
<rect width="56" height="56" fill="white"/>
</clipPath>
</defs>
</svg>
